<?xml version="1.0" encoding="UTF-8" standalone="no"?>
<!DOCTYPE svg PUBLIC "-//W3C//DTD SVG 1.1//EN" "http://www.w3.org/Graphics/SVG/1.1/DTD/svg11.dtd">
<svg xmlns="http://www.w3.org/2000/svg" version="1.1" viewBox="0.00 0.00 128.00 128.00">
<path fill="#c7c7c7" d="
  M 3.14 0.00
  L 20.67 0.00
  L 20.87 18.01
  A 0.90 0.89 0.0 0 1 19.96 18.91
  L 0.00 18.84
  L 0.00 2.27
  L 0.31 0.96
  Q 0.42 0.46 0.93 0.37
  L 3.14 0.00
  Z"
/>
<path fill="#c7c7c7" d="
  M 29.39 0.00
  L 42.60 0.00
  L 42.84 18.24
  A 0.66 0.65 89.6 0 1 42.19 18.91
  L 24.92 19.05
  A 0.88 0.88 0.0 0 1 24.03 18.17
  L 24.02 1.35
  A 1.14 1.14 0.0 0 1 25.10 0.21
  L 29.39 0.00
  Z"
/>
<path fill="#c7c7c7" d="
  M 50.64 0.00
  L 64.60 0.00
  L 64.94 17.96
  A 0.99 0.99 0.0 0 1 63.96 18.96
  L 46.73 19.05
  A 0.58 0.58 0.0 0 1 46.15 18.48
  L 45.94 1.32
  A 1.16 1.15 88.5 0 1 47.04 0.15
  L 50.64 0.00
  Z"
/>
<path fill="#c7c7c7" d="
  M 71.39 0.00
  L 86.63 0.00
  L 86.83 18.09
  A 0.84 0.84 0.0 0 1 86.00 18.94
  L 69.06 19.05
  Q 68.06 19.05 68.06 18.06
  L 68.00 1.29
  A 1.10 1.08 -86.9 0 1 69.20 0.20
  Q 70.56 0.35 71.39 0.00
  Z"
/>
<path fill="#c7c7c7" d="
  M 93.39 0.00
  L 108.56 0.00
  L 108.88 17.85
  Q 108.90 18.95 107.81 18.95
  L 90.72 19.04
  Q 90.14 19.05 90.13 18.47
  L 89.92 1.07
  Q 89.92 0.54 90.45 0.46
  L 93.39 0.00
  Z"
/>
<path fill="#c7c7c7" d="
  M 114.88 0.00
  L 128.00 0.00
  L 128.00 18.76
  L 112.80 18.99
  A 0.76 0.76 0.0 0 1 112.02 18.23
  L 112.02 1.47
  A 1.25 1.24 -87.3 0 1 113.38 0.23
  Q 114.35 0.32 114.88 0.00
  Z"
/>
<path fill="#c7c7c7" d="
  M 0.00 40.61
  L 0.00 22.22
  L 19.81 21.98
  A 1.20 1.20 0.0 0 1 21.02 23.18
  L 20.99 39.57
  Q 20.98 40.95 19.60 40.92
  L 0.00 40.61
  Z"
/>
<rect fill="#c7c7c7" x="24.01" y="22.08" width="18.98" height="18.90" rx="0.95"/>
<rect fill="#c7c7c7" x="46.05" y="22.07" width="18.96" height="18.90" rx="1.04"/>
<rect fill="#c7c7c7" x="68.01" y="22.07" width="18.98" height="18.90" rx="0.99"/>
<rect fill="#c7c7c7" x="90.03" y="22.08" width="18.96" height="18.88" rx="1.07"/>
<path fill="#c7c7c7" d="
  M 128.00 22.22
  L 128.00 40.65
  L 112.65 40.71
  Q 112.01 40.71 112.01 40.07
  L 112.01 23.22
  A 1.20 1.20 0.0 0 1 113.22 22.02
  L 128.00 22.22
  Z"
/>
<rect fill="#c7c7c7" x="-9.50" y="-9.50" transform="translate(33.48,53.49) rotate(0.1)" width="19.00" height="19.00" rx="1.04"/>
<rect fill="#c7c7c7" x="90.01" y="44.00" width="18.96" height="19.00" rx="1.14"/>
<path fill="#c7c7c7" d="
  M 128.00 44.25
  L 128.00 62.73
  L 112.93 63.00
  A 0.95 0.95 0.0 0 1 111.97 62.04
  L 111.98 44.99
  A 1.06 1.06 0.0 0 1 113.06 43.94
  L 128.00 44.25
  Z"
/>
<path fill="#c7c7c7" d="
  M 0.00 62.84
  L 0.00 44.19
  L 20.04 44.01
  A 0.95 0.95 0.0 0 1 21.00 44.97
  L 20.98 61.76
  A 1.12 1.12 0.0 0 1 19.85 62.88
  L 0.00 62.84
  Z"
/>
<rect fill="#c7c7c7" x="-9.48" y="-9.51" transform="translate(55.51,53.51) rotate(-0.1)" width="18.96" height="19.02" rx="1.12"/>
<rect fill="#c7c7c7" x="67.98" y="44.00" width="19.00" height="19.02" rx="1.08"/>
<path fill="#c7c7c7" d="
  M 0.00 82.84
  L 0.00 66.23
  L 19.81 65.96
  A 1.24 1.23 -0.0 0 1 21.06 67.20
  L 20.95 81.90
  A 1.02 1.01 0.3 0 1 19.92 82.91
  L 0.00 82.84
  Z"
/>
<rect fill="#c7c7c7" x="-9.50" y="-8.47" transform="translate(33.50,74.53) rotate(-0.1)" width="19.00" height="16.94" rx="0.98"/>
<path fill="#c7c7c7" d="
  M 63.99 82.95
  L 47.02 83.10
  A 1.01 1.01 0.0 0 1 46.00 82.09
  L 46.07 67.11
  A 1.01 1.01 0.0 0 1 47.07 66.11
  L 64.02 66.06
  A 1.01 1.01 0.0 0 1 65.04 67.08
  L 64.99 81.94
  A 1.01 1.01 0.0 0 1 63.99 82.95
  Z"
/>
<rect fill="#c7c7c7" x="-9.50" y="-8.49" transform="translate(77.49,74.53) rotate(0.1)" width="19.00" height="16.98" rx="1.04"/>
<rect fill="#c7c7c7" x="-9.49" y="-8.48" transform="translate(99.50,74.53) rotate(-0.2)" width="18.98" height="16.96" rx="1.08"/>
<path fill="#c7c7c7" d="
  M 128.00 66.20
  L 128.00 82.76
  L 112.77 83.01
  A 0.79 0.79 0.0 0 1 111.97 82.22
  L 112.01 67.19
  A 1.18 1.18 0.0 0 1 113.20 66.02
  L 128.00 66.20
  Z"
/>
<path fill="#c7c7c7" d="
  M 0.00 104.71
  L 0.00 86.28
  L 19.78 85.97
  A 1.25 1.24 89.5 0 1 21.04 87.22
  L 20.98 103.56
  Q 20.97 104.93 19.60 104.92
  L 0.00 104.71
  Z"
/>
<rect fill="#c7c7c7" x="24.00" y="86.08" width="19.00" height="18.90" rx="0.95"/>
<rect fill="#c7c7c7" x="46.04" y="86.07" width="18.98" height="18.90" rx="1.03"/>
<rect fill="#c7c7c7" x="68.01" y="86.07" width="18.98" height="18.90" rx="0.99"/>
<rect fill="#c7c7c7" x="90.02" y="86.09" width="18.98" height="18.88" rx="1.07"/>
<path fill="#c7c7c7" d="
  M 128.00 86.22
  L 128.00 104.66
  Q 120.36 105.39 112.63 104.72
  Q 112.01 104.67 112.01 104.05
  L 112.00 87.23
  A 1.23 1.23 0.0 0 1 113.25 86.00
  L 128.00 86.22
  Z"
/>
<path fill="#c7c7c7" d="
  M 42.73 128.00
  L 24.12 128.00
  L 23.91 109.23
  A 1.25 1.24 -0.5 0 1 25.16 107.97
  L 42.01 108.02
  A 0.99 0.98 0.6 0 1 43.00 109.02
  L 42.73 128.00
  Z"
/>
<path fill="#c7c7c7" d="
  M 108.82 128.00
  L 90.11 128.00
  L 90.08 109.06
  A 1.09 1.09 0.0 0 1 91.18 107.96
  L 108.06 108.06
  A 0.94 0.94 0.0 0 1 109.00 109.00
  L 108.82 128.00
  Z"
/>
<path fill="#c7c7c7" d="
  M 20.73 128.00
  L 0.00 128.00
  L 0.00 108.18
  L 20.07 108.02
  A 0.92 0.92 0.0 0 1 21.00 108.95
  L 20.73 128.00
  Z"
/>
<path fill="#c7c7c7" d="
  M 64.73 128.00
  L 46.17 128.00
  L 46.02 109.01
  A 1.02 1.02 0.0 0 1 47.04 107.98
  L 64.05 108.03
  A 0.95 0.94 0.6 0 1 65.00 108.99
  L 64.73 128.00
  Z"
/>
<path fill="#c7c7c7" d="
  M 86.81 128.00
  L 68.11 128.00
  L 67.90 109.15
  A 1.15 1.15 0.0 0 1 69.05 107.99
  L 86.03 108.02
  A 0.97 0.97 0.0 0 1 87.00 109.00
  L 86.81 128.00
  Z"
/>
<path fill="#c7c7c7" d="
  M 128.00 108.25
  L 128.00 128.00
  L 112.14 128.00
  L 111.97 109.06
  A 1.07 1.07 0.0 0 1 113.06 107.98
  L 128.00 108.25
  Z"
/>
</svg>
