<?xml version="1.0" encoding="UTF-8" standalone="no"?>
<!DOCTYPE svg PUBLIC "-//W3C//DTD SVG 1.1//EN" "http://www.w3.org/Graphics/SVG/1.1/DTD/svg11.dtd">
<svg xmlns="http://www.w3.org/2000/svg" version="1.1" viewBox="0.00 0.00 128.00 128.00">
<path fill="#c7c7c7" d="
  M 3.14 0.00
  L 14.78 0.00
  L 14.87 15.31
  A 0.46 0.46 0.0 0 1 14.41 15.78
  L 0.00 15.85
  L 0.00 1.78
  L 0.25 0.90
  A 0.80 0.79 3.4 0 1 0.89 0.34
  L 3.14 0.00
  Z"
/>
<path fill="#c7c7c7" d="
  M 19.65 0.00
  L 32.47 0.00
  Q 33.15 0.17 33.61 0.52
  Q 33.99 0.81 33.99 1.29
  L 34.01 14.74
  Q 34.01 15.99 32.76 15.98
  L 18.73 15.84
  Q 18.12 15.83 18.11 15.23
  L 17.92 1.24
  Q 17.91 0.61 18.51 0.40
  L 19.65 0.00
  Z"
/>
<path fill="#c7c7c7" d="
  M 37.33 0.00
  L 50.47 0.00
  L 51.58 0.45
  Q 52.01 0.62 52.01 1.08
  L 51.99 14.71
  Q 51.99 15.92 50.79 15.92
  L 37.94 15.93
  Q 37.20 15.93 37.21 15.19
  L 37.33 0.00
  Z"
/>
<path fill="#c7c7c7" d="
  M 55.43 0.00
  L 68.52 0.00
  L 68.92 15.20
  A 0.63 0.63 0.0 0 1 68.30 15.85
  L 55.75 16.02
  A 0.61 0.60 -90.0 0 1 55.14 15.40
  L 55.43 0.00
  Z"
/>
<path fill="#c7c7c7" d="
  M 75.40 0.00
  L 86.72 0.00
  L 86.90 15.23
  Q 86.91 15.88 86.26 15.89
  L 72.72 15.98
  Q 71.99 15.98 71.99 15.25
  L 72.03 1.19
  Q 72.03 0.62 72.60 0.52
  L 75.40 0.00
  Z"
/>
<path fill="#c7c7c7" d="
  M 93.64 0.00
  L 106.70 0.00
  L 106.85 15.16
  Q 106.86 15.85 106.16 15.87
  Q 98.52 16.06 90.71 15.79
  Q 90.12 15.77 90.11 15.18
  L 89.88 1.37
  Q 89.86 0.04 91.18 0.18
  Q 92.77 0.34 93.64 0.00
  Z"
/>
<path fill="#c7c7c7" d="
  M 110.59 0.00
  L 128.00 0.00
  L 128.00 15.84
  L 110.86 15.71
  Q 110.35 15.71 110.28 15.20
  Q 109.28 7.18 110.59 0.00
  Z"
/>
<path fill="#c7c7c7" d="
  M 0.00 33.92
  L 0.00 19.32
  L 13.88 19.05
  A 1.17 1.17 0.0 0 1 15.08 20.24
  L 14.93 33.20
  A 0.67 0.66 -0.4 0 1 14.27 33.86
  L 0.00 33.92
  Z"
/>
<rect fill="#c7c7c7" x="-8.07" y="-7.43" transform="translate(26.03,26.55) rotate(-0.3)" width="16.14" height="14.86" rx="0.99"/>
<rect fill="#c7c7c7" x="-7.56" y="-7.44" transform="translate(44.52,26.54) rotate(-0.4)" width="15.12" height="14.88" rx="0.93"/>
<rect fill="#c7c7c7" x="-7.01" y="-7.46" transform="translate(61.99,26.57) rotate(-0.5)" width="14.02" height="14.92" rx="0.88"/>
<rect fill="#c7c7c7" x="71.94" y="19.10" width="15.08" height="14.88" rx="0.83"/>
<rect fill="#c7c7c7" x="-8.54" y="-7.44" transform="translate(98.49,26.53) rotate(-0.3)" width="17.08" height="14.88" rx="0.98"/>
<path fill="#c7c7c7" d="
  M 128.00 19.21
  L 128.00 33.87
  L 110.56 33.93
  A 0.51 0.50 89.4 0 1 110.06 33.43
  L 109.95 20.06
  A 0.87 0.87 0.0 0 1 110.82 19.18
  L 128.00 19.21
  Z"
/>
<path fill="#c7c7c7" d="
  M 0.00 54.81
  L 0.00 37.44
  L 14.04 37.05
  A 0.99 0.99 0.0 0 1 15.06 38.05
  L 14.88 54.18
  Q 14.87 54.97 14.08 54.96
  L 0.00 54.81
  Z"
/>
<rect fill="#c7c7c7" x="-8.00" y="-8.96" transform="translate(26.01,46.04) rotate(-0.1)" width="16.00" height="17.92" rx="1.09"/>
<rect fill="#c7c7c7" x="-7.52" y="-8.91" transform="translate(44.51,46.04) rotate(-0.2)" width="15.04" height="17.82" rx="0.98"/>
<rect fill="#c7c7c7" x="-6.98" y="-8.97" transform="translate(61.99,46.06) rotate(-0.1)" width="13.96" height="17.94" rx="0.95"/>
<rect fill="#c7c7c7" x="-7.50" y="-8.98" transform="translate(79.47,46.05) rotate(0.1)" width="15.00" height="17.96" rx="0.95"/>
<path fill="#c7c7c7" d="
  M 107.05 38.07
  L 106.92 53.88
  A 1.06 1.06 0.0 0 1 105.87 54.93
  L 91.11 55.11
  A 1.06 1.06 0.0 0 1 90.03 54.05
  L 89.95 38.21
  A 1.06 1.06 0.0 0 1 91.00 37.14
  L 105.98 37.00
  A 1.06 1.06 0.0 0 1 107.05 38.07
  Z"
/>
<path fill="#c7c7c7" d="
  M 128.00 37.20
  L 128.00 54.76
  L 110.94 55.08
  A 0.83 0.83 0.0 0 1 110.09 54.26
  L 109.95 38.12
  A 1.11 1.10 -89.8 0 1 111.07 37.00
  L 128.00 37.20
  Z"
/>
<rect fill="#c7c7c7" x="-7.53" y="-6.97" transform="translate(79.49,64.99) rotate(0.1)" width="15.06" height="13.94" rx="0.85"/>
<path fill="#c7c7c7" d="
  M 0.00 71.86
  L 0.00 58.22
  L 14.00 57.96
  A 1.07 1.06 89.5 0 1 15.09 59.04
  L 14.94 71.23
  Q 14.93 71.78 14.38 71.78
  L 0.00 71.86
  Z"
/>
<rect fill="#c7c7c7" x="-8.06" y="-6.90" transform="translate(26.02,64.99) rotate(0.2)" width="16.12" height="13.80" rx="0.91"/>
<rect fill="#c7c7c7" x="-7.52" y="-6.90" transform="translate(44.53,65.02) rotate(-0.3)" width="15.04" height="13.80" rx="0.80"/>
<rect fill="#c7c7c7" x="-7.00" y="-6.94" transform="translate(62.01,65.00) rotate(-0.3)" width="14.00" height="13.88" rx="0.82"/>
<rect fill="#c7c7c7" x="-8.54" y="-6.94" transform="translate(98.48,64.97) rotate(0.1)" width="17.08" height="13.88" rx="0.99"/>
<path fill="#c7c7c7" d="
  M 128.00 58.23
  L 128.00 71.84
  L 110.71 71.79
  Q 110.11 71.79 110.10 71.19
  L 109.88 59.25
  A 1.23 1.23 0.0 0 1 111.12 58.00
  L 128.00 58.23
  Z"
/>
<path fill="#c7c7c7" d="
  M 0.00 88.74
  L 0.00 75.32
  L 13.93 75.03
  A 1.14 1.14 0.0 0 1 15.10 76.19
  L 14.95 88.01
  A 0.95 0.95 0.0 0 1 13.99 88.95
  L 0.00 88.74
  Z"
/>
<rect fill="#c7c7c7" x="-8.10" y="-6.92" transform="translate(26.04,82.05) rotate(-0.3)" width="16.20" height="13.84" rx="1.14"/>
<rect fill="#c7c7c7" x="-7.58" y="-6.91" transform="translate(44.49,82.01) rotate(-0.1)" width="15.16" height="13.82" rx="0.90"/>
<rect fill="#c7c7c7" x="-7.04" y="-6.94" transform="translate(61.99,82.04) rotate(-0.1)" width="14.08" height="13.88" rx="0.94"/>
<rect fill="#c7c7c7" x="-7.56" y="-6.96" transform="translate(79.48,82.03) rotate(0.1)" width="15.12" height="13.92" rx="1.04"/>
<rect fill="#c7c7c7" x="-8.56" y="-6.95" transform="translate(98.48,82.04) rotate(-0.2)" width="17.12" height="13.90" rx="1.09"/>
<path fill="#c7c7c7" d="
  M 128.00 75.22
  L 128.00 88.72
  L 110.84 88.95
  A 0.77 0.77 0.0 0 1 110.06 88.20
  L 109.87 76.29
  Q 109.85 75.17 110.97 75.17
  L 128.00 75.22
  Z"
/>
<rect fill="#c7c7c7" x="-8.02" y="-7.95" transform="translate(26.00,99.98) rotate(0.3)" width="16.04" height="15.90" rx="1.05"/>
<rect fill="#c7c7c7" x="-6.99" y="-7.99" transform="translate(61.99,99.99) rotate(0.1)" width="13.98" height="15.98" rx="0.91"/>
<rect fill="#c7c7c7" x="-7.53" y="-8.01" transform="translate(79.45,100.00) rotate(0.1)" width="15.06" height="16.02" rx="0.94"/>
<path fill="#c7c7c7" d="
  M 0.00 107.91
  L 0.00 92.37
  L 14.07 92.02
  A 0.95 0.95 0.0 0 1 15.04 92.98
  L 14.92 107.01
  Q 14.91 107.90 14.02 107.90
  L 0.00 107.91
  Z"
/>
<rect fill="#c7c7c7" x="-7.50" y="-7.96" transform="translate(44.51,100.00) rotate(-0.1)" width="15.00" height="15.92" rx="0.95"/>
<rect fill="#c7c7c7" x="-8.50" y="-7.97" transform="translate(98.48,100.00) rotate(0.2)" width="17.00" height="15.94" rx="1.04"/>
<path fill="#c7c7c7" d="
  M 128.00 92.20
  L 128.00 107.86
  L 110.63 107.77
  Q 110.05 107.77 110.05 107.19
  L 109.95 93.29
  Q 109.95 91.98 111.26 92.00
  L 128.00 92.20
  Z"
/>
<path fill="#c7c7c7" d="
  M 14.78 128.00
  L 0.00 128.00
  L 0.00 111.31
  L 13.76 111.00
  A 1.23 1.23 0.0 0 1 15.02 112.25
  L 14.78 128.00
  Z"
/>
<path fill="#c7c7c7" d="
  M 33.82 128.00
  L 18.21 128.00
  L 17.99 112.22
  A 1.00 1.00 0.0 0 1 18.98 111.21
  L 32.38 111.07
  Q 34.21 111.05 34.17 112.88
  L 33.82 128.00
  Z"
/>
<path fill="#c7c7c7" d="
  M 51.79 128.00
  L 37.16 128.00
  L 36.81 111.90
  Q 36.79 111.14 37.56 111.13
  L 50.62 111.05
  Q 52.18 111.04 52.15 112.59
  L 51.79 128.00
  Z"
/>
<path fill="#c7c7c7" d="
  M 68.70 128.00
  L 55.10 128.00
  L 54.93 112.00
  A 0.86 0.86 0.0 0 1 55.79 111.13
  L 68.02 111.10
  A 1.02 1.02 0.0 0 1 69.04 112.15
  L 68.70 128.00
  Z"
/>
<path fill="#c7c7c7" d="
  M 86.69 128.00
  L 72.14 128.00
  L 71.95 112.05
  A 0.85 0.85 0.0 0 1 72.79 111.19
  L 85.72 111.00
  A 1.36 1.35 -89.8 0 1 87.10 112.40
  L 86.69 128.00
  Z"
/>
<path fill="#c7c7c7" d="
  M 106.80 128.00
  L 90.11 128.00
  L 90.03 112.11
  A 0.91 0.91 0.0 0 1 90.93 111.19
  L 105.77 111.00
  A 1.33 1.32 -90.0 0 1 107.11 112.35
  L 106.80 128.00
  Z"
/>
<path fill="#c7c7c7" d="
  M 128.00 111.22
  L 128.00 128.00
  L 110.15 128.00
  L 110.03 111.99
  A 0.82 0.81 -89.7 0 1 110.85 111.17
  L 128.00 111.22
  Z"
/>
</svg>
