<?xml version="1.0" encoding="UTF-8" standalone="no"?>
<!DOCTYPE svg PUBLIC "-//W3C//DTD SVG 1.1//EN" "http://www.w3.org/Graphics/SVG/1.1/DTD/svg11.dtd">
<svg xmlns="http://www.w3.org/2000/svg" version="1.1" viewBox="0.00 0.00 128.00 128.00">
<g stroke-width="2.00" fill="none" stroke-linecap="butt">
<path stroke="#e3e3e3" vector-effect="non-scaling-stroke" d="
  M 36.91 28.26
  Q 27.26 28.99 20.94 35.99"
/>
<path stroke="#e3e3e3" vector-effect="non-scaling-stroke" d="
  M 79.22 36.01
  L 79.13 30.39
  Q 79.11 29.49 78.22 29.49
  L 67.01 29.50
  Q 66.47 29.50 66.45 30.04
  L 66.21 36.11"
/>
<path stroke="#e3e3e3" vector-effect="non-scaling-stroke" d="
  M 53.11 36.05
  Q 48.41 30.83 42.06 28.98"
/>
<path stroke="#e3e3e3" vector-effect="non-scaling-stroke" d="
  M 108.03 36.11
  L 107.73 30.13
  Q 107.70 29.49 107.06 29.49
  L 95.59 29.51
  A 0.59 0.59 0.0 0 0 95.00 30.10
  L 94.98 36.30"
/>
<path stroke="#e3e3e3" vector-effect="non-scaling-stroke" d="
  M 56.05 40.99
  Q 57.85 45.72 57.90 51.50
  Q 58.05 66.71 58.00 81.93
  Q 58.00 82.42 58.20 82.88
  Q 58.43 83.38 58.45 83.97"
/>
<path stroke="#e3e3e3" vector-effect="non-scaling-stroke" d="
  M 57.30 88.86
  Q 53.76 100.84 41.99 104.21"
/>
<path stroke="#e3e3e3" vector-effect="non-scaling-stroke" d="
  M 36.98 104.92
  Q 21.50 103.63 16.76 89.06"
/>
<path stroke="#e3e3e3" vector-effect="non-scaling-stroke" d="
  M 16.01 83.89
  Q 15.93 67.58 16.08 51.05
  Q 16.12 45.72 18.00 41.10"
/>
<path stroke="#e3e3e3" vector-effect="non-scaling-stroke" d="
  M 31.71 89.05
  Q 31.61 89.26 31.62 89.51
  Q 31.62 89.73 31.78 89.93
  Q 33.72 92.31 36.90 91.94"
/>
<path stroke="#e3e3e3" vector-effect="non-scaling-stroke" d="
  M 44.99 84.02
  Q 45.14 58.87 44.92 49.38
  Q 44.83 45.63 42.06 43.67"
/>
<path stroke="#e3e3e3" vector-effect="non-scaling-stroke" d="
  M 37.02 41.29
  Q 29.55 41.72 29.10 49.47
  Q 28.67 57.08 29.19 83.93"
/>
<path stroke="#e3e3e3" vector-effect="non-scaling-stroke" d="
  M 79.24 40.97
  L 79.09 58.19
  A 0.78 0.77 88.6 0 0 79.90 58.97
  L 85.34 58.72"
/>
<path stroke="#e3e3e3" vector-effect="non-scaling-stroke" d="
  M 89.58 58.67
  Q 91.96 59.30 94.45 58.80
  Q 94.94 58.70 94.95 58.19
  L 95.07 40.74"
/>
<path stroke="#e3e3e3" vector-effect="non-scaling-stroke" d="
  M 108.07 40.59
  L 108.19 83.99"
/>
<path stroke="#e3e3e3" vector-effect="non-scaling-stroke" d="
  M 108.32 88.98
  L 108.23 103.45
  A 0.56 0.55 -89.5 0 1 107.68 104.00
  L 95.96 104.00
  A 0.93 0.92 0.3 0 1 95.03 103.07
  L 95.09 88.72"
/>
<path stroke="#e3e3e3" vector-effect="non-scaling-stroke" d="
  M 94.99 84.25
  L 94.95 72.83
  Q 94.95 72.32 94.45 72.21
  Q 92.09 71.69 89.86 72.26"
/>
<path stroke="#e3e3e3" vector-effect="non-scaling-stroke" d="
  M 85.15 72.28
  L 79.73 72.07
  A 0.61 0.60 0.9 0 0 79.09 72.68
  L 79.17 84.03"
/>
<path stroke="#e3e3e3" vector-effect="non-scaling-stroke" d="
  M 79.17 88.77
  L 79.09 103.14
  A 0.87 0.87 0.0 0 1 78.22 104.00
  L 67.19 104.00
  Q 65.98 104.00 65.99 102.79
  L 66.13 88.86"
/>
<path stroke="#e3e3e3" vector-effect="non-scaling-stroke" d="
  M 66.09 84.03
  L 66.19 40.88"
/>
</g>
<path fill="#c7c7c7" d="
  M 0.00 0.00
  L 36.76 0.00
  L 36.91 28.26
  Q 27.26 28.99 20.94 35.99
  L 0.00 35.97
  L 0.00 0.00
  Z"
/>
<path fill="#c7c7c7" d="
  M 42.29 0.00
  L 84.83 0.00
  L 84.90 35.34
  A 0.78 0.77 0.7 0 1 84.10 36.11
  L 79.22 36.01
  L 79.13 30.39
  Q 79.11 29.49 78.22 29.49
  L 67.01 29.50
  Q 66.47 29.50 66.45 30.04
  L 66.21 36.11
  L 53.11 36.05
  Q 48.41 30.83 42.06 28.98
  L 42.29 0.00
  Z"
/>
<path fill="#c7c7c7" d="
  M 91.13 0.00
  L 128.00 0.00
  L 128.00 35.97
  L 108.03 36.11
  L 107.73 30.13
  Q 107.70 29.49 107.06 29.49
  L 95.59 29.51
  A 0.59 0.59 0.0 0 0 95.00 30.10
  L 94.98 36.30
  L 91.15 35.99
  A 1.14 1.13 2.2 0 1 90.10 34.86
  L 89.98 1.06
  Q 89.98 0.60 90.39 0.38
  L 91.13 0.00
  Z"
/>
<path fill="#ffffff" d="
  M 36.91 28.26
  L 42.06 28.98
  Q 48.41 30.83 53.11 36.05
  L 56.05 40.99
  Q 57.85 45.72 57.90 51.50
  Q 58.05 66.71 58.00 81.93
  Q 58.00 82.42 58.20 82.88
  Q 58.43 83.38 58.45 83.97
  Q 58.05 83.94 57.99 84.26
  Q 57.60 86.46 57.30 88.86
  Q 53.76 100.84 41.99 104.21
  L 36.98 104.92
  Q 21.50 103.63 16.76 89.06
  L 16.01 83.89
  Q 15.93 67.58 16.08 51.05
  Q 16.12 45.72 18.00 41.10
  L 20.94 35.99
  Q 27.26 28.99 36.91 28.26
  Z
  M 29.19 83.93
  Q 29.13 86.82 30.84 88.79
  Q 31.01 88.99 31.23 89.04
  Q 31.49 89.10 31.71 89.05
  Q 31.61 89.26 31.62 89.51
  Q 31.62 89.73 31.78 89.93
  Q 33.72 92.31 36.90 91.94
  Q 38.60 92.28 40.40 91.30
  C 41.55 90.67 41.75 89.68 42.74 88.99
  C 44.33 87.89 44.85 85.87 44.99 84.02
  Q 45.14 58.87 44.92 49.38
  Q 44.83 45.63 42.06 43.67
  Q 41.30 41.42 37.02 41.29
  Q 29.55 41.72 29.10 49.47
  Q 28.67 57.08 29.19 83.93
  Z"
/>
<path fill="#ffffff" d="
  M 79.22 36.01
  Q 78.78 38.51 79.24 40.97
  L 79.09 58.19
  A 0.78 0.77 88.6 0 0 79.90 58.97
  L 85.34 58.72
  Q 87.54 59.26 89.58 58.67
  Q 91.96 59.30 94.45 58.80
  Q 94.94 58.70 94.95 58.19
  L 95.07 40.74
  L 94.98 36.30
  L 95.00 30.10
  A 0.59 0.59 0.0 0 1 95.59 29.51
  L 107.06 29.49
  Q 107.70 29.49 107.73 30.13
  L 108.03 36.11
  L 108.07 40.59
  L 108.19 83.99
  L 108.32 88.98
  L 108.23 103.45
  A 0.56 0.55 -89.5 0 1 107.68 104.00
  L 95.96 104.00
  A 0.93 0.92 0.3 0 1 95.03 103.07
  L 95.09 88.72
  L 94.99 84.25
  L 94.95 72.83
  Q 94.95 72.32 94.45 72.21
  Q 92.09 71.69 89.86 72.26
  Q 87.55 71.67 85.15 72.28
  L 79.73 72.07
  A 0.61 0.60 0.9 0 0 79.09 72.68
  L 79.17 84.03
  L 79.17 88.77
  L 79.09 103.14
  A 0.87 0.87 0.0 0 1 78.22 104.00
  L 67.19 104.00
  Q 65.98 104.00 65.99 102.79
  L 66.13 88.86
  L 66.09 84.03
  L 66.19 40.88
  L 66.21 36.11
  L 66.45 30.04
  Q 66.47 29.50 67.01 29.50
  L 78.22 29.49
  Q 79.11 29.49 79.13 30.39
  L 79.22 36.01
  Z"
/>
<path fill="#c7c7c7" d="
  M 108.07 40.59
  L 128.00 41.12
  L 128.00 83.92
  L 108.19 83.99
  L 108.07 40.59
  Z"
/>
<path fill="#c7c7c7" d="
  M 66.19 40.88
  L 66.09 84.03
  L 58.45 83.97
  Q 58.43 83.38 58.20 82.88
  Q 58.00 82.42 58.00 81.93
  Q 58.05 66.71 57.90 51.50
  Q 57.85 45.72 56.05 40.99
  L 66.19 40.88
  Z"
/>
<path fill="#c7c7c7" d="
  M 85.34 58.72
  L 79.90 58.97
  A 0.78 0.77 88.6 0 1 79.09 58.19
  L 79.24 40.97
  L 84.06 40.91
  A 1.00 1.00 0.0 0 1 85.07 41.89
  L 85.34 58.72
  Z"
/>
<path fill="#c7c7c7" d="
  M 95.07 40.74
  L 94.95 58.19
  Q 94.94 58.70 94.45 58.80
  Q 91.96 59.30 89.58 58.67
  C 90.79 53.08 89.79 47.16 89.96 41.46
  Q 89.97 40.95 90.48 40.93
  L 95.07 40.74
  Z"
/>
<path fill="#c7c7c7" d="
  M 18.00 41.10
  Q 16.12 45.72 16.08 51.05
  Q 15.93 67.58 16.01 83.89
  L 0.00 83.63
  L 0.00 41.38
  L 18.00 41.10
  Z"
/>
<path fill="#c7c7c7" d="
  M 37.02 41.29
  L 36.98 83.31
  A 0.64 0.64 0.0 0 1 36.34 83.95
  L 29.19 83.93
  Q 28.67 57.08 29.10 49.47
  Q 29.55 41.72 37.02 41.29
  Z"
/>
<path fill="#c7c7c7" d="
  M 42.06 43.67
  Q 44.83 45.63 44.92 49.38
  Q 45.14 58.87 44.99 84.02
  L 42.57 83.93
  A 0.55 0.54 1.7 0 1 42.05 83.39
  L 42.06 43.67
  Z"
/>
<path fill="#c7c7c7" d="
  M 85.15 72.28
  L 85.09 82.86
  A 1.18 1.17 -0.0 0 1 83.91 84.03
  L 79.17 84.03
  L 79.09 72.68
  A 0.61 0.60 0.9 0 1 79.73 72.07
  L 85.15 72.28
  Z"
/>
<path fill="#c7c7c7" d="
  M 94.99 84.25
  L 90.64 83.72
  Q 90.13 83.66 90.12 83.14
  L 89.86 72.26
  Q 92.09 71.69 94.45 72.21
  Q 94.95 72.32 94.95 72.83
  L 94.99 84.25
  Z"
/>
<path fill="#c7c7c7" d="
  M 16.76 89.06
  Q 21.50 103.63 36.98 104.92
  L 36.91 128.00
  L 0.00 128.00
  L 0.00 89.19
  L 16.76 89.06
  Z"
/>
<path fill="#c7c7c7" d="
  M 57.30 88.86
  L 66.13 88.86
  L 65.99 102.79
  Q 65.98 104.00 67.19 104.00
  L 78.22 104.00
  A 0.87 0.87 0.0 0 0 79.09 103.14
  L 79.17 88.77
  L 84.07 88.92
  A 0.90 0.89 1.0 0 1 84.94 89.81
  L 84.92 128.00
  L 41.95 128.00
  L 41.99 104.21
  Q 53.76 100.84 57.30 88.86
  Z"
/>
<path fill="#c7c7c7" d="
  M 95.09 88.72
  L 95.03 103.07
  A 0.93 0.92 0.3 0 0 95.96 104.00
  L 107.68 104.00
  A 0.56 0.55 -89.5 0 0 108.23 103.45
  L 108.32 88.98
  L 128.00 89.09
  L 128.00 128.00
  L 89.90 128.00
  L 89.87 89.73
  A 0.85 0.85 0.0 0 1 90.69 88.88
  L 95.09 88.72
  Z"
/>
<path fill="#c7c7c7" d="
  M 31.71 89.05
  L 36.44 89.05
  Q 37.00 89.06 36.98 89.62
  L 36.90 91.94
  Q 33.72 92.31 31.78 89.93
  Q 31.62 89.73 31.62 89.51
  Q 31.61 89.26 31.71 89.05
  Z"
/>
</svg>
