<?xml version="1.0" encoding="UTF-8" standalone="no"?>
<!DOCTYPE svg PUBLIC "-//W3C//DTD SVG 1.1//EN" "http://www.w3.org/Graphics/SVG/1.1/DTD/svg11.dtd">
<svg xmlns="http://www.w3.org/2000/svg" version="1.1" viewBox="0.00 0.00 128.00 128.00">
<path fill="#c7c7c7" d="
  M 0.00 0.00
  L 36.78 0.00
  L 36.86 35.05
  A 0.96 0.96 0.0 0 1 35.90 36.02
  L 0.00 35.84
  L 0.00 0.00
  Z"
/>
<path fill="#c7c7c7" d="
  M 43.13 0.00
  L 84.78 0.00
  L 84.85 35.15
  A 0.95 0.94 -0.3 0 1 83.90 36.10
  L 42.89 36.00
  Q 42.03 36.00 42.03 35.14
  L 41.97 1.06
  Q 41.97 0.59 42.39 0.38
  L 43.13 0.00
  Z"
/>
<path fill="#c7c7c7" d="
  M 91.13 0.00
  L 128.00 0.00
  L 128.00 35.95
  L 90.75 35.93
  A 0.72 0.72 0.0 0 1 90.03 35.21
  L 89.97 1.06
  Q 89.97 0.59 90.39 0.38
  L 91.13 0.00
  Z"
/>
<rect fill="#c7c7c7" x="-21.48" y="-21.51" transform="translate(63.48,62.53) rotate(0.1)" width="42.96" height="43.02" rx="0.78"/>
<path fill="#c7c7c7" d="
  M 128.00 41.04
  L 128.00 83.93
  L 91.23 83.94
  Q 90.02 83.94 90.02 82.73
  L 89.99 41.50
  A 0.77 0.77 0.0 0 1 90.76 40.73
  L 128.00 41.04
  Z"
/>
<path fill="#c7c7c7" d="
  M 0.00 82.68
  L 0.00 41.21
  L 36.04 40.98
  A 0.98 0.97 89.7 0 1 37.02 41.96
  L 36.92 82.96
  A 1.05 1.05 0.0 0 1 35.87 84.01
  Q 19.05 83.96 3.25 84.08
  Q 0.23 84.10 0.00 82.68
  Z"
/>
<path fill="#c7c7c7" d="
  M 84.93 128.00
  L 41.96 128.00
  L 41.96 89.50
  A 0.75 0.75 0.0 0 1 42.77 88.75
  C 44.73 88.90 46.72 89.15 48.68 89.13
  Q 66.13 88.94 84.17 89.02
  A 0.87 0.87 0.0 0 1 85.03 89.89
  L 84.93 128.00
  Z"
/>
<path fill="#c7c7c7" d="
  M 128.00 89.04
  L 128.00 128.00
  L 89.96 128.00
  L 89.96 89.52
  A 0.78 0.78 0.0 0 1 90.75 88.74
  L 128.00 89.04
  Z"
/>
<path fill="#c7c7c7" d="
  M 36.93 128.00
  L 0.00 128.00
  L 0.00 89.21
  L 36.09 88.98
  A 0.94 0.93 89.7 0 1 37.03 89.92
  L 36.93 128.00
  Z"
/>
</svg>
