<?xml version="1.0" encoding="UTF-8" standalone="no"?>
<!DOCTYPE svg PUBLIC "-//W3C//DTD SVG 1.1//EN" "http://www.w3.org/Graphics/SVG/1.1/DTD/svg11.dtd">
<svg xmlns="http://www.w3.org/2000/svg" version="1.1" viewBox="0.00 0.00 128.00 128.00">
<path fill="#c7c7c7" d="
  M 0.00 0.00
  L 39.61 0.00
  Q 40.97 0.46 41.38 2.71
  Q 41.85 5.28 41.99 5.76
  Q 50.67 34.78 58.99 63.51
  A 0.32 0.31 88.2 0 1 58.62 63.91
  Q 30.50 57.43 1.34 50.63
  Q 0.14 50.35 0.00 48.61
  L 0.00 0.00
  Z"
/>
<path fill="#c7c7c7" d="
  M 45.40 0.00
  L 62.23 0.00
  L 69.89 0.00
  L 77.97 0.00
  Q 78.97 0.32 78.61 1.65
  Q 70.58 31.87 62.72 60.95
  Q 62.12 63.17 61.48 60.96
  Q 54.16 35.80 47.48 13.66
  Q 45.58 7.35 44.05 1.15
  Q 43.92 0.62 44.43 0.41
  L 45.40 0.00
  Z"
/>
<path fill="#c7c7c7" d="
  M 83.00 0.00
  L 128.00 0.00
  L 128.00 43.53
  L 66.01 64.49
  Q 64.97 64.84 65.26 63.78
  Q 72.97 34.81 80.88 5.29
  Q 81.21 4.05 81.49 2.72
  Q 81.92 0.67 83.00 0.00
  Z"
/>
<path fill="#c7c7c7" d="
  M 128.00 46.92
  L 128.00 80.09
  L 70.47 66.55
  Q 69.54 66.33 70.45 66.03
  L 128.00 46.92
  Z"
/>
<path fill="#c7c7c7" d="
  M 0.00 86.36
  L 0.00 54.23
  Q 1.68 53.84 5.74 54.79
  Q 31.10 60.72 56.46 66.71
  Q 57.78 67.03 56.49 67.45
  L 0.00 86.36
  Z"
/>
<path fill="#c7c7c7" d="
  M 128.00 83.41
  L 128.00 128.00
  L 81.22 128.00
  L 63.93 68.85
  A 0.37 0.37 0.0 0 1 64.37 68.38
  L 128.00 83.41
  Z"
/>
<path fill="#c7c7c7" d="
  M 44.80 128.00
  L 0.00 128.00
  L 0.00 89.50
  L 60.20 69.32
  Q 60.68 69.16 60.54 69.65
  L 44.80 128.00
  Z"
/>
<path fill="#c7c7c7" d="
  M 77.87 128.00
  L 48.14 128.00
  L 61.88 76.30
  Q 62.35 74.53 62.86 76.29
  L 77.87 128.00
  Z"
/>
</svg>
