<?xml version="1.0" encoding="UTF-8" standalone="no"?>
<!DOCTYPE svg PUBLIC "-//W3C//DTD SVG 1.1//EN" "http://www.w3.org/Graphics/SVG/1.1/DTD/svg11.dtd">
<svg xmlns="http://www.w3.org/2000/svg" version="1.1" viewBox="0.00 0.00 128.00 128.00">
<path fill="#c7c7c7" d="
  M 0.00 0.00
  L 60.99 0.00
  Q 61.18 0.18 61.55 0.34
  Q 62.00 0.53 62.00 1.01
  L 61.99 60.93
  A 1.10 1.09 90.0 0 1 60.90 62.03
  L 0.00 61.95
  L 0.00 0.00
  Z"
/>
<path fill="#c7c7c7" d="
  M 67.01 0.00
  L 128.00 0.00
  L 128.00 61.98
  L 67.45 61.96
  A 0.50 0.50 0.0 0 1 66.95 61.46
  L 67.01 0.00
  Z"
/>
<path fill="#c7c7c7" d="
  M 61.97 128.00
  L 0.00 128.00
  L 0.00 67.17
  L 61.40 67.02
  A 0.65 0.65 0.0 0 1 62.05 67.67
  L 61.97 128.00
  Z"
/>
<path fill="#c7c7c7" d="
  M 128.00 67.03
  L 128.00 128.00
  L 66.98 128.00
  L 66.96 67.59
  A 0.52 0.52 0.0 0 1 67.48 67.07
  L 128.00 67.03
  Z"
/>
</svg>
