<?xml version="1.0" encoding="UTF-8" standalone="no"?>
<!DOCTYPE svg PUBLIC "-//W3C//DTD SVG 1.1//EN" "http://www.w3.org/Graphics/SVG/1.1/DTD/svg11.dtd">
<svg xmlns="http://www.w3.org/2000/svg" version="1.1" viewBox="0.00 0.00 128.00 128.00">
<path fill="#c7c7c7" d="
  M 64.59 37.32
  L 41.94 20.06
  A 0.32 0.32 0.0 0 1 41.94 19.55
  L 64.36 2.77
  A 0.32 0.32 0.0 0 1 64.74 2.78
  L 88.17 20.50
  A 0.32 0.32 0.0 0 1 88.16 21.01
  L 64.97 37.33
  A 0.32 0.32 0.0 0 1 64.59 37.32
  Z"
/>
<path fill="#c7c7c7" d="
  M 39.28 21.87
  L 61.75 39.01
  A 0.30 0.30 0.0 0 1 61.75 39.50
  L 39.85 54.90
  A 0.30 0.30 0.0 0 1 39.39 54.75
  L 30.98 28.00
  A 0.30 0.30 0.0 0 1 31.09 27.67
  L 38.92 21.86
  A 0.30 0.30 0.0 0 1 39.28 21.87
  Z"
/>
<path fill="#c7c7c7" d="
  M 91.33 57.60
  L 67.67 39.62
  A 0.33 0.33 0.0 0 1 67.68 39.09
  L 90.90 22.99
  A 0.33 0.33 0.0 0 1 91.28 23.00
  L 100.01 29.45
  A 0.33 0.33 0.0 0 1 100.13 29.81
  L 91.85 57.43
  A 0.33 0.33 0.0 0 1 91.33 57.60
  Z"
/>
<path fill="#c7c7c7" d="
  M 3.94 47.74
  L 27.95 29.82
  A 0.31 0.31 0.0 0 1 28.43 29.98
  L 36.79 56.64
  A 0.31 0.31 0.0 0 1 36.67 56.99
  L 12.11 74.18
  A 0.31 0.31 0.0 0 1 11.64 74.02
  L 3.83 48.08
  A 0.31 0.31 0.0 0 1 3.94 47.74
  Z"
/>
<path fill="#c7c7c7" d="
  M 115.01 75.75
  L 94.63 60.06
  A 0.63 0.63 0.0 0 1 94.41 59.37
  L 102.62 32.49
  A 0.63 0.63 0.0 0 1 103.61 32.18
  L 123.89 47.80
  A 0.63 0.63 0.0 0 1 124.10 48.48
  L 115.99 75.43
  A 0.63 0.63 0.0 0 1 115.01 75.75
  Z"
/>
<path fill="#c7c7c7" d="
  M 81.16 88.96
  L 51.15 88.96
  A 1.43 1.43 0.0 0 1 49.79 87.96
  L 40.75 59.16
  A 1.43 1.43 0.0 0 1 41.30 57.56
  L 63.76 41.78
  A 1.43 1.43 0.0 0 1 65.45 41.82
  L 89.95 60.55
  A 1.43 1.43 0.0 0 1 90.45 62.10
  L 82.53 87.95
  A 1.43 1.43 0.0 0 1 81.16 88.96
  Z"
/>
<path fill="#c7c7c7" d="
  M 38.02 60.53
  L 46.72 88.32
  Q 46.97 89.13 46.13 89.04
  C 44.38 88.85 42.62 88.67 40.89 88.73
  Q 29.26 89.14 17.29 88.97
  A 1.79 1.79 0.0 0 1 15.59 87.66
  L 13.05 78.65
  A 1.94 1.94 0.0 0 1 13.82 76.52
  L 37.37 60.31
  Q 37.85 59.99 38.02 60.53
  Z"
/>
<path fill="#c7c7c7" d="
  M 111.56 88.96
  L 86.09 88.90
  A 0.52 0.52 0.0 0 1 85.59 88.23
  L 93.25 63.73
  A 0.52 0.52 0.0 0 1 94.06 63.48
  L 114.53 79.31
  A 0.52 0.52 0.0 0 1 114.71 79.87
  L 112.06 88.59
  A 0.52 0.52 0.0 0 1 111.56 88.96
  Z"
/>
<path fill="#c7c7c7" d="
  M 48.03 92.52
  L 57.27 122.02
  A 0.76 0.76 0.0 0 1 56.55 123.01
  L 26.97 123.03
  A 0.76 0.76 0.0 0 1 26.25 122.49
  L 17.35 93.00
  A 0.76 0.76 0.0 0 1 18.07 92.02
  L 47.30 91.99
  A 0.76 0.76 0.0 0 1 48.03 92.52
  Z"
/>
<path fill="#c7c7c7" d="
  M 60.52 122.38
  L 51.37 93.07
  A 0.80 0.80 0.0 0 1 52.14 92.03
  L 80.26 92.09
  A 0.80 0.80 0.0 0 1 81.03 93.12
  L 72.08 122.50
  A 0.80 0.80 0.0 0 1 71.31 123.07
  L 61.27 122.94
  A 0.80 0.80 0.0 0 1 60.52 122.38
  Z"
/>
<path fill="#c7c7c7" d="
  M 75.30 122.38
  L 84.49 92.41
  A 0.48 0.48 0.0 0 1 84.94 92.07
  L 110.33 91.96
  A 0.48 0.48 0.0 0 1 110.79 92.58
  L 101.68 122.68
  A 0.48 0.48 0.0 0 1 101.22 123.02
  L 75.76 123.00
  A 0.48 0.48 0.0 0 1 75.30 122.38
  Z"
/>
</svg>
