<?xml version="1.0" encoding="UTF-8" standalone="no"?>
<!DOCTYPE svg PUBLIC "-//W3C//DTD SVG 1.1//EN" "http://www.w3.org/Graphics/SVG/1.1/DTD/svg11.dtd">
<svg xmlns="http://www.w3.org/2000/svg" version="1.1" viewBox="0.00 0.00 128.00 128.00">
<path fill="#c7c7c7" d="
  M 45.31 43.75
  L 64.69 5.01
  Q 64.95 4.50 65.11 5.05
  Q 65.33 5.82 65.67 6.52
  Q 72.70 21.02 84.28 43.79
  Q 84.52 44.28 83.98 44.28
  L 45.63 44.26
  Q 45.05 44.26 45.31 43.75
  Z"
/>
<path fill="#c7c7c7" d="
  M 83.69 48.36
  L 64.85 81.99
  A 0.31 0.31 0.0 0 1 64.31 81.99
  L 46.06 48.03
  A 0.31 0.31 0.0 0 1 46.34 47.58
  L 83.43 47.90
  A 0.31 0.31 0.0 0 1 83.69 48.36
  Z"
/>
<path fill="#c7c7c7" d="
  M 24.85 84.68
  L 42.35 49.69
  A 0.33 0.33 0.0 0 1 42.94 49.68
  L 61.61 84.68
  A 0.33 0.33 0.0 0 1 61.32 85.17
  L 25.14 85.16
  A 0.33 0.33 0.0 0 1 24.85 84.68
  Z"
/>
<path fill="#c7c7c7" d="
  M 67.21 84.59
  L 86.70 50.09
  A 0.38 0.38 0.0 0 1 87.37 50.11
  L 104.62 84.62
  A 0.38 0.38 0.0 0 1 104.28 85.17
  L 67.54 85.16
  A 0.38 0.38 0.0 0 1 67.21 84.59
  Z"
/>
<path fill="#c7c7c7" d="
  M 61.50 88.78
  L 43.37 120.83
  A 0.31 0.31 0.0 0 1 42.82 120.82
  L 25.74 88.78
  A 0.31 0.31 0.0 0 1 26.02 88.32
  L 61.23 88.32
  A 0.31 0.31 0.0 0 1 61.50 88.78
  Z"
/>
<path fill="#c7c7c7" d="
  M 103.22 88.99
  L 85.52 120.76
  A 0.35 0.35 0.0 0 1 84.91 120.75
  L 67.76 88.68
  A 0.35 0.35 0.0 0 1 68.08 88.17
  L 102.92 88.47
  A 0.35 0.35 0.0 0 1 103.22 88.99
  Z"
/>
<path fill="#c7c7c7" d="
  M 5.20 123.82
  L 22.10 90.10
  A 0.31 0.31 0.0 0 1 22.65 90.09
  L 40.65 123.82
  A 0.31 0.31 0.0 0 1 40.37 124.28
  L 5.48 124.27
  A 0.31 0.31 0.0 0 1 5.20 123.82
  Z"
/>
<path fill="#c7c7c7" d="
  M 45.74 123.38
  L 64.12 90.87
  A 0.59 0.59 0.0 0 1 65.16 90.90
  L 81.48 123.42
  A 0.59 0.59 0.0 0 1 80.95 124.27
  L 46.25 124.26
  A 0.59 0.59 0.0 0 1 45.74 123.38
  Z"
/>
<path fill="#c7c7c7" d="
  M 87.67 123.42
  L 105.96 90.82
  A 0.55 0.55 0.0 0 1 106.93 90.84
  L 123.20 123.49
  A 0.55 0.55 0.0 0 1 122.71 124.29
  L 88.15 124.24
  A 0.55 0.55 0.0 0 1 87.67 123.42
  Z"
/>
</svg>
