<?xml version="1.0" encoding="UTF-8" standalone="no"?>
<!DOCTYPE svg PUBLIC "-//W3C//DTD SVG 1.1//EN" "http://www.w3.org/Graphics/SVG/1.1/DTD/svg11.dtd">
<svg xmlns="http://www.w3.org/2000/svg" version="1.1" viewBox="0.00 0.00 128.00 128.00">
<path fill="#c7c7c7" d="
  M 0.00 0.00
  L 60.48 0.00
  Q 61.19 0.15 61.49 0.37
  Q 61.88 0.64 61.54 0.97
  C 41.36 21.19 21.25 41.41 0.96 61.38
  Q 0.53 61.80 0.34 61.22
  L 0.00 60.12
  L 0.00 0.00
  Z"
/>
<path fill="#c7c7c7" d="
  M 68.76 0.00
  L 128.00 0.00
  L 128.00 59.74
  Q 127.91 60.20 127.73 60.51
  Q 127.46 60.97 127.08 60.59
  Q 98.69 32.22 70.33 3.84
  Q 69.75 3.25 69.14 2.67
  Q 66.11 -0.24 68.76 0.00
  Z"
/>
<rect fill="#c7c7c7" x="-41.69" y="-42.08" transform="translate(64.77,64.25) rotate(-45.0)" width="83.38" height="84.16" rx="0.26"/>
<path fill="#c7c7c7" d="
  M 62.39 128.00
  L 0.00 128.00
  L 0.00 69.51
  L 0.41 67.81
  Q 0.54 67.27 1.03 67.53
  Q 3.35 68.75 5.17 70.58
  Q 33.60 98.94 62.39 128.00
  Z"
/>
<path fill="#c7c7c7" d="
  M 128.00 68.05
  L 128.00 128.00
  L 67.61 128.00
  Q 96.01 99.45 123.99 71.48
  Q 126.59 68.88 128.00 68.05
  Z"
/>
</svg>
