<?xml version="1.0" encoding="UTF-8" standalone="no"?>
<!DOCTYPE svg PUBLIC "-//W3C//DTD SVG 1.1//EN" "http://www.w3.org/Graphics/SVG/1.1/DTD/svg11.dtd">
<svg xmlns="http://www.w3.org/2000/svg" version="1.1" viewBox="0.00 0.00 534.00 534.00">
<g stroke-width="2.00" fill="none" stroke-linecap="butt">
<path stroke="#d6d6d6" vector-effect="non-scaling-stroke" d="
  M 432.09 126.97
  Q 431.10 136.42 431.38 145.73
  C 431.50 149.53 430.99 153.08 431.00 156.84
  C 431.01 164.04 430.31 171.26 429.75 178.49
  Q 426.59 219.63 415.60 259.04
  Q 411.26 274.64 404.31 292.22
  Q 402.24 297.45 399.94 302.58
  Q 398.14 306.58 396.19 311.02
  Q 393.94 316.12 392.03 319.28
  Q 389.59 323.31 387.78 326.91
  Q 386.89 328.68 385.83 330.36
  Q 384.80 331.98 383.72 333.75
  Q 377.51 343.96 371.16 352.68
  Q 346.86 386.05 311.72 410.30
  Q 299.26 418.89 290.18 423.99
  Q 287.95 425.25 286.30 426.26
  Q 284.35 427.48 282.45 428.46
  Q 271.39 434.17 260.19 439.62
  Q 258.13 440.62 255.96 441.41
  C 253.95 442.15 252.13 443.40 250.15 443.99
  Q 249.37 444.22 248.62 444.54
  Q 228.64 452.97 207.62 458.33
  C 204.34 459.16 200.87 459.63 197.59 460.59
  C 195.78 461.12 193.90 461.14 192.06 461.53
  C 189.10 462.16 186.08 462.21 183.11 462.77
  Q 181.70 463.03 180.41 462.98
  C 178.02 462.88 175.83 463.52 173.42 463.43
  Q 167.80 463.20 161.98 462.78"
/>
<path stroke="#d6d6d6" vector-effect="non-scaling-stroke" d="
  M 87.35 266.72
  Q 87.54 263.34 87.05 256.50
  Q 86.70 251.72 87.04 244.99
  Q 87.33 239.23 87.47 233.49
  Q 87.62 226.59 88.45 217.75
  Q 90.28 198.20 93.84 180.68
  C 94.03 179.76 93.85 178.89 93.85 177.90"
/>
<path stroke="#d6d6d6" vector-effect="non-scaling-stroke" d="
  M 529.90 136.43
  Q 528.69 135.50 528.47 137.24
  Q 527.41 145.55 526.40 149.78
  Q 521.85 168.93 510.99 186.74
  C 509.19 189.70 507.06 192.38 505.01 195.14
  Q 502.77 198.16 500.02 200.98
  Q 490.40 210.81 478.56 217.31
  Q 473.35 220.16 467.76 222.84
  Q 465.09 224.12 461.65 225.45
  Q 458.47 226.68 455.46 227.89
  Q 452.61 229.04 449.24 230.11
  C 448.06 230.48 446.87 230.39 445.94 231.37
  A 0.47 0.46 -27.2 0 1 445.14 231.12
  Q 444.73 228.15 445.12 225.46
  Q 445.51 222.68 445.52 219.96
  Q 445.56 208.11 445.52 196.86
  C 445.51 194.61 444.93 192.63 444.98 190.38
  C 445.08 186.36 444.47 182.17 443.99 178.22
  Q 443.93 177.70 444.13 177.23
  L 444.53 176.31"
/>
<path stroke="#d6d6d6" vector-effect="non-scaling-stroke" d="
  M 78.46 170.46
  Q 78.63 172.34 79.03 174.18
  C 79.71 177.28 79.50 180.45 79.52 183.57
  Q 79.54 186.26 79.02 189.00
  Q 77.79 195.55 74.96 202.37
  Q 72.92 207.28 68.83 212.43
  Q 64.59 217.76 60.94 220.94
  Q 52.44 228.37 40.09 234.81"
/>
<path stroke="#918677" vector-effect="non-scaling-stroke" d="
  M 377.28 83.21
  C 359.87 80.39 343.50 71.32 332.17 58.23
  C 327.19 52.49 318.94 58.14 322.53 64.36
  C 333.37 83.15 354.75 94.46 376.28 94.57
  C 384.39 94.61 383.97 84.29 377.28 83.21"
/>
<path stroke="#918677" vector-effect="non-scaling-stroke" d="
  M 205.68 57.91
  C 194.01 71.05 177.81 80.35 160.37 83.14
  C 155.69 83.89 153.48 89.74 156.91 93.10
  Q 158.53 94.68 162.08 94.62
  Q 175.35 94.40 186.80 89.18
  Q 204.54 81.08 214.60 65.11
  C 218.85 58.35 210.35 52.65 205.68 57.91"
/>
<path stroke="#f0f0f0" vector-effect="non-scaling-stroke" d="
  M 171.38 121.49
  Q 161.93 129.25 157.90 141.20
  Q 152.95 155.90 156.32 171.02
  Q 158.45 180.60 164.37 189.02
  Q 175.36 204.64 194.71 209.85
  Q 196.23 210.25 197.82 210.38
  C 200.48 210.59 202.91 211.22 205.60 211.28
  Q 217.78 211.54 228.84 206.65
  C 244.17 199.88 255.57 185.82 258.64 169.09
  Q 262.79 146.40 249.00 127.50
  Q 241.93 117.82 230.74 112.67"
/>
<path stroke="#918677" vector-effect="non-scaling-stroke" d="
  M 230.74 112.67
  Q 214.76 103.47 197.50 106.75
  Q 182.78 109.55 171.38 121.49"
/>
<path stroke="#a19586" vector-effect="non-scaling-stroke" d="
  M 230.74 112.67
  Q 243.64 121.19 249.14 134.52
  C 261.19 163.67 241.01 196.91 209.33 198.56
  C 194.21 199.35 180.31 193.44 170.81 182.11
  C 159.10 168.16 156.98 149.54 164.22 132.74
  Q 166.08 128.42 171.38 121.49"
/>
<path stroke="#f0f0f0" vector-effect="non-scaling-stroke" d="
  M 299.34 122.39
  Q 282.99 138.45 284.02 161.07
  Q 284.50 171.70 288.59 180.62
  Q 296.56 197.98 314.18 206.44
  Q 320.35 209.40 325.47 210.12
  Q 327.65 210.42 329.75 210.83
  Q 332.04 211.27 334.35 211.29
  Q 356.27 211.50 371.51 197.74
  Q 383.49 186.92 386.94 172.17
  Q 393.34 144.79 374.97 123.80
  Q 368.86 116.82 360.05 112.87"
/>
<path stroke="#918677" vector-effect="non-scaling-stroke" d="
  M 360.05 112.87
  Q 344.02 103.41 326.50 106.78
  Q 311.47 109.67 299.34 122.39"
/>
<path stroke="#a19586" vector-effect="non-scaling-stroke" d="
  M 360.05 112.87
  Q 376.45 123.98 380.50 141.93
  C 386.52 168.58 369.13 193.63 342.68 198.06
  Q 335.65 199.23 328.66 198.17
  C 299.29 193.71 281.87 164.25 291.87 136.21
  Q 292.98 133.07 295.28 129.14
  Q 297.29 125.71 299.34 122.39"
/>
<path stroke="#918677" vector-effect="non-scaling-stroke" d="
  M 284.52 265.30
  C 288.79 267.06 292.19 267.89 296.50 265.88
  C 304.56 262.12 306.17 249.79 298.08 244.94
  Q 293.45 242.16 287.39 240.52
  Q 264.33 234.26 241.93 243.50
  C 229.81 248.49 232.54 266.53 245.97 267.02
  C 249.14 267.14 251.81 265.72 254.65 264.68
  C 264.33 261.15 275.21 261.47 284.52 265.30"
/>
<path stroke="#a19586" vector-effect="non-scaling-stroke" d="
  M 216.1545 121.7165
  A 27.16 22.07 -36.6 0 0 181.1913 120.1918
  A 27.16 22.07 -36.6 0 0 172.5455 154.1035
  A 27.16 22.07 -36.6 0 0 207.5087 155.6282
  A 27.16 22.07 -36.6 0 0 216.1545 121.7165"
/>
<path stroke="#a19586" vector-effect="non-scaling-stroke" d="
  M 228.7644 164.6754
  A 7.96 7.36 -39.7 0 0 217.9387 164.0972
  A 7.96 7.36 -39.7 0 0 216.5156 174.8446
  A 7.96 7.36 -39.7 0 0 227.3413 175.4228
  A 7.96 7.36 -39.7 0 0 228.7644 164.6754"
/>
<path stroke="#a19586" vector-effect="non-scaling-stroke" d="
  M 345.1542 121.7125
  A 27.17 22.07 -36.7 0 0 310.1804 120.2548
  A 27.17 22.07 -36.7 0 0 301.5858 154.1875
  A 27.17 22.07 -36.7 0 0 336.5596 155.6452
  A 27.17 22.07 -36.7 0 0 345.1542 121.7125"
/>
<path stroke="#a19586" vector-effect="non-scaling-stroke" d="
  M 357.9262 164.4263
  A 7.95 7.36 -40.6 0 0 347.1003 164.0118
  A 7.95 7.36 -40.6 0 0 345.8538 174.7737
  A 7.95 7.36 -40.6 0 0 356.6797 175.1882
  A 7.95 7.36 -40.6 0 0 357.9262 164.4263"
/>
</g>
<path fill="#e0e0e0" d="
  M 432.09 126.97
  Q 431.10 136.42 431.38 145.73
  C 431.50 149.53 430.99 153.08 431.00 156.84
  C 431.01 164.04 430.31 171.26 429.75 178.49
  Q 426.59 219.63 415.60 259.04
  Q 411.26 274.64 404.31 292.22
  Q 402.24 297.45 399.94 302.58
  Q 398.14 306.58 396.19 311.02
  Q 393.94 316.12 392.03 319.28
  Q 389.59 323.31 387.78 326.91
  Q 386.89 328.68 385.83 330.36
  Q 384.80 331.98 383.72 333.75
  Q 377.51 343.96 371.16 352.68
  Q 346.86 386.05 311.72 410.30
  Q 299.26 418.89 290.18 423.99
  Q 287.95 425.25 286.30 426.26
  Q 284.35 427.48 282.45 428.46
  Q 271.39 434.17 260.19 439.62
  Q 258.13 440.62 255.96 441.41
  C 253.95 442.15 252.13 443.40 250.15 443.99
  Q 249.37 444.22 248.62 444.54
  Q 228.64 452.97 207.62 458.33
  C 204.34 459.16 200.87 459.63 197.59 460.59
  C 195.78 461.12 193.90 461.14 192.06 461.53
  C 189.10 462.16 186.08 462.21 183.11 462.77
  Q 181.70 463.03 180.41 462.98
  C 178.02 462.88 175.83 463.52 173.42 463.43
  Q 167.80 463.20 161.98 462.78
  Q 131.71 429.95 113.01 390.23
  Q 109.58 382.93 106.32 372.73
  Q 92.13 328.36 88.39 281.89
  Q 87.81 274.61 87.35 266.72
  Q 87.54 263.34 87.05 256.50
  Q 86.70 251.72 87.04 244.99
  Q 87.33 239.23 87.47 233.49
  Q 87.62 226.59 88.45 217.75
  Q 90.28 198.20 93.84 180.68
  C 94.03 179.76 93.85 178.89 93.85 177.90
  Q 93.87 178.28 94.20 178.11
  Q 94.43 177.99 94.48 177.74
  Q 103.45 135.49 124.30 98.22
  C 146.48 58.57 181.10 29.84 224.15 14.68
  Q 246.69 6.75 270.03 5.41
  C 322.91 2.37 371.16 29.98 402.26 71.53
  Q 421.50 97.24 432.09 126.97
  Z
  M 377.28 83.21
  C 359.87 80.39 343.50 71.32 332.17 58.23
  C 327.19 52.49 318.94 58.14 322.53 64.36
  C 333.37 83.15 354.75 94.46 376.28 94.57
  C 384.39 94.61 383.97 84.29 377.28 83.21
  Z
  M 205.68 57.91
  C 194.01 71.05 177.81 80.35 160.37 83.14
  C 155.69 83.89 153.48 89.74 156.91 93.10
  Q 158.53 94.68 162.08 94.62
  Q 175.35 94.40 186.80 89.18
  Q 204.54 81.08 214.60 65.11
  C 218.85 58.35 210.35 52.65 205.68 57.91
  Z
  M 171.38 121.49
  Q 161.93 129.25 157.90 141.20
  Q 152.95 155.90 156.32 171.02
  Q 158.45 180.60 164.37 189.02
  Q 175.36 204.64 194.71 209.85
  Q 196.23 210.25 197.82 210.38
  C 200.48 210.59 202.91 211.22 205.60 211.28
  Q 217.78 211.54 228.84 206.65
  C 244.17 199.88 255.57 185.82 258.64 169.09
  Q 262.79 146.40 249.00 127.50
  Q 241.93 117.82 230.74 112.67
  Q 214.76 103.47 197.50 106.75
  Q 182.78 109.55 171.38 121.49
  Z
  M 299.34 122.39
  Q 282.99 138.45 284.02 161.07
  Q 284.50 171.70 288.59 180.62
  Q 296.56 197.98 314.18 206.44
  Q 320.35 209.40 325.47 210.12
  Q 327.65 210.42 329.75 210.83
  Q 332.04 211.27 334.35 211.29
  Q 356.27 211.50 371.51 197.74
  Q 383.49 186.92 386.94 172.17
  Q 393.34 144.79 374.97 123.80
  Q 368.86 116.82 360.05 112.87
  Q 344.02 103.41 326.50 106.78
  Q 311.47 109.67 299.34 122.39
  Z
  M 284.52 265.30
  C 288.79 267.06 292.19 267.89 296.50 265.88
  C 304.56 262.12 306.17 249.79 298.08 244.94
  Q 293.45 242.16 287.39 240.52
  Q 264.33 234.26 241.93 243.50
  C 229.81 248.49 232.54 266.53 245.97 267.02
  C 249.14 267.14 251.81 265.72 254.65 264.68
  C 264.33 261.15 275.21 261.47 284.52 265.30
  Z"
/>
<path fill="#422b0d" d="
  M 332.17 58.23
  C 343.50 71.32 359.87 80.39 377.28 83.21
  C 383.97 84.29 384.39 94.61 376.28 94.57
  C 354.75 94.46 333.37 83.15 322.53 64.36
  C 318.94 58.14 327.19 52.49 332.17 58.23
  Z"
/>
<path fill="#422b0d" d="
  M 160.37 83.14
  C 177.81 80.35 194.01 71.05 205.68 57.91
  C 210.35 52.65 218.85 58.35 214.60 65.11
  Q 204.54 81.08 186.80 89.18
  Q 175.35 94.40 162.08 94.62
  Q 158.53 94.68 156.91 93.10
  C 153.48 89.74 155.69 83.89 160.37 83.14
  Z"
/>
<path fill="#e0e0e0" d="
  M 78.46 170.46
  Q 78.63 172.34 79.03 174.18
  C 79.71 177.28 79.50 180.45 79.52 183.57
  Q 79.54 186.26 79.02 189.00
  Q 77.79 195.55 74.96 202.37
  Q 72.92 207.28 68.83 212.43
  Q 64.59 217.76 60.94 220.94
  Q 52.44 228.37 40.09 234.81
  Q 6.58 198.53 4.00 148.88
  Q 3.36 136.75 5.75 124.87
  C 7.59 115.68 12.50 106.53 22.48 104.69
  C 38.12 101.79 46.01 116.65 50.67 128.68
  Q 53.11 134.97 55.54 141.73
  C 59.94 154.02 67.23 163.62 78.46 170.46
  Z"
/>
<path fill="#e0e0e0" d="
  M 529.90 136.43
  Q 528.69 135.50 528.47 137.24
  Q 527.41 145.55 526.40 149.78
  Q 521.85 168.93 510.99 186.74
  C 509.19 189.70 507.06 192.38 505.01 195.14
  Q 502.77 198.16 500.02 200.98
  Q 490.40 210.81 478.56 217.31
  Q 473.35 220.16 467.76 222.84
  Q 465.09 224.12 461.65 225.45
  Q 458.47 226.68 455.46 227.89
  Q 452.61 229.04 449.24 230.11
  C 448.06 230.48 446.87 230.39 445.94 231.37
  A 0.47 0.46 -27.2 0 1 445.14 231.12
  Q 444.73 228.15 445.12 225.46
  Q 445.51 222.68 445.52 219.96
  Q 445.56 208.11 445.52 196.86
  C 445.51 194.61 444.93 192.63 444.98 190.38
  C 445.08 186.36 444.47 182.17 443.99 178.22
  Q 443.93 177.70 444.13 177.23
  L 444.53 176.31
  C 456.59 171.19 467.37 163.19 473.96 151.76
  Q 476.11 148.03 478.38 141.88
  C 482.25 131.38 485.72 120.53 492.61 111.91
  Q 497.69 105.55 504.89 104.56
  C 515.17 103.15 522.33 108.63 526.08 117.72
  Q 529.27 125.44 529.90 136.43
  Z"
/>
<path fill="#422b0d" d="
  M 230.74 112.67
  Q 243.64 121.19 249.14 134.52
  C 261.19 163.67 241.01 196.91 209.33 198.56
  C 194.21 199.35 180.31 193.44 170.81 182.11
  C 159.10 168.16 156.98 149.54 164.22 132.74
  Q 166.08 128.42 171.38 121.49
  Q 182.78 109.55 197.50 106.75
  Q 214.76 103.47 230.74 112.67
  Z
  M 216.1545 121.7165
  A 27.16 22.07 -36.6 0 0 181.1913 120.1918
  A 27.16 22.07 -36.6 0 0 172.5455 154.1035
  A 27.16 22.07 -36.6 0 0 207.5087 155.6282
  A 27.16 22.07 -36.6 0 0 216.1545 121.7165
  Z
  M 228.7644 164.6754
  A 7.96 7.36 -39.7 0 0 217.9387 164.0972
  A 7.96 7.36 -39.7 0 0 216.5156 174.8446
  A 7.96 7.36 -39.7 0 0 227.3413 175.4228
  A 7.96 7.36 -39.7 0 0 228.7644 164.6754
  Z"
/>
<path fill="#422b0d" d="
  M 360.05 112.87
  Q 376.45 123.98 380.50 141.93
  C 386.52 168.58 369.13 193.63 342.68 198.06
  Q 335.65 199.23 328.66 198.17
  C 299.29 193.71 281.87 164.25 291.87 136.21
  Q 292.98 133.07 295.28 129.14
  Q 297.29 125.71 299.34 122.39
  Q 311.47 109.67 326.50 106.78
  Q 344.02 103.41 360.05 112.87
  Z
  M 345.1542 121.7125
  A 27.17 22.07 -36.7 0 0 310.1804 120.2548
  A 27.17 22.07 -36.7 0 0 301.5858 154.1875
  A 27.17 22.07 -36.7 0 0 336.5596 155.6452
  A 27.17 22.07 -36.7 0 0 345.1542 121.7125
  Z
  M 357.9262 164.4263
  A 7.95 7.36 -40.6 0 0 347.1003 164.0118
  A 7.95 7.36 -40.6 0 0 345.8538 174.7737
  A 7.95 7.36 -40.6 0 0 356.6797 175.1882
  A 7.95 7.36 -40.6 0 0 357.9262 164.4263
  Z"
/>
<path fill="#ffffff" d="
  M 230.74 112.67
  Q 241.93 117.82 249.00 127.50
  Q 262.79 146.40 258.64 169.09
  C 255.57 185.82 244.17 199.88 228.84 206.65
  Q 217.78 211.54 205.60 211.28
  C 202.91 211.22 200.48 210.59 197.82 210.38
  Q 196.23 210.25 194.71 209.85
  Q 175.36 204.64 164.37 189.02
  Q 158.45 180.60 156.32 171.02
  Q 152.95 155.90 157.90 141.20
  Q 161.93 129.25 171.38 121.49
  Q 166.08 128.42 164.22 132.74
  C 156.98 149.54 159.10 168.16 170.81 182.11
  C 180.31 193.44 194.21 199.35 209.33 198.56
  C 241.01 196.91 261.19 163.67 249.14 134.52
  Q 243.64 121.19 230.74 112.67
  Z"
/>
<path fill="#ffffff" d="
  M 360.05 112.87
  Q 368.86 116.82 374.97 123.80
  Q 393.34 144.79 386.94 172.17
  Q 383.49 186.92 371.51 197.74
  Q 356.27 211.50 334.35 211.29
  Q 332.04 211.27 329.75 210.83
  Q 327.65 210.42 325.47 210.12
  Q 320.35 209.40 314.18 206.44
  Q 296.56 197.98 288.59 180.62
  Q 284.50 171.70 284.02 161.07
  Q 282.99 138.45 299.34 122.39
  Q 297.29 125.71 295.28 129.14
  Q 292.98 133.07 291.87 136.21
  C 281.87 164.25 299.29 193.71 328.66 198.17
  Q 335.65 199.23 342.68 198.06
  C 369.13 193.63 386.52 168.58 380.50 141.93
  Q 376.45 123.98 360.05 112.87
  Z"
/>
<ellipse fill="#ffffff" cx="0.00" cy="0.00" transform="translate(194.35,137.91) rotate(-36.6)" rx="27.16" ry="22.07"/>
<ellipse fill="#ffffff" cx="0.00" cy="0.00" transform="translate(323.37,137.95) rotate(-36.7)" rx="27.17" ry="22.07"/>
<path fill="#cccccc" d="
  M 432.09 126.97
  Q 439.89 147.44 442.68 167.53
  Q 443.53 173.62 444.01 176.03
  Q 444.05 176.24 444.25 176.29
  Q 444.39 176.32 444.53 176.31
  L 444.13 177.23
  Q 443.93 177.70 443.99 178.22
  C 444.47 182.17 445.08 186.36 444.98 190.38
  C 444.93 192.63 445.51 194.61 445.52 196.86
  Q 445.56 208.11 445.52 219.96
  Q 445.51 222.68 445.12 225.46
  Q 444.73 228.15 445.14 231.12
  A 0.47 0.46 -27.2 0 0 445.94 231.37
  C 446.87 230.39 448.06 230.48 449.24 230.11
  Q 452.61 229.04 455.46 227.89
  Q 458.47 226.68 461.65 225.45
  Q 465.09 224.12 467.76 222.84
  Q 473.35 220.16 478.56 217.31
  Q 490.40 210.81 500.02 200.98
  Q 502.77 198.16 505.01 195.14
  C 507.06 192.38 509.19 189.70 510.99 186.74
  Q 521.85 168.93 526.40 149.78
  Q 527.41 145.55 528.47 137.24
  Q 528.69 135.50 529.90 136.43
  Q 532.03 193.62 494.72 233.98
  Q 473.63 256.79 440.54 268.97
  A 0.85 0.84 84.7 0 0 440.00 269.63
  C 439.92 270.21 440.09 270.90 439.98 271.48
  Q 438.40 279.86 436.82 287.84
  C 431.71 313.71 424.41 339.59 416.15 367.15
  Q 412.29 380.02 409.75 394.15
  Q 409.15 397.54 408.92 400.80
  Q 408.67 404.31 408.28 407.89
  C 407.83 412.15 408.57 416.26 409.03 420.53
  Q 409.61 425.97 412.42 432.19
  C 415.76 439.56 420.89 443.67 428.71 445.17
  Q 436.24 446.61 442.63 445.80
  Q 447.13 445.22 450.77 445.72
  Q 456.71 446.54 460.64 450.35
  Q 463.99 453.59 465.66 459.40
  Q 469.65 473.29 458.80 484.77
  Q 451.20 492.81 439.43 499.18
  Q 420.69 509.32 397.49 516.21
  Q 373.44 523.36 348.91 526.63
  Q 344.59 527.21 340.67 527.68
  Q 338.64 527.92 336.75 527.93
  C 334.82 527.95 333.18 528.40 331.33 528.52
  Q 316.64 529.51 301.38 528.70
  C 299.44 528.59 296.16 527.93 293.46 527.91
  Q 291.40 527.89 290.27 527.75
  Q 214.45 518.30 161.98 462.78
  Q 167.80 463.20 173.42 463.43
  C 175.83 463.52 178.02 462.88 180.41 462.98
  Q 181.70 463.03 183.11 462.77
  C 186.08 462.21 189.10 462.16 192.06 461.53
  C 193.90 461.14 195.78 461.12 197.59 460.59
  C 200.87 459.63 204.34 459.16 207.62 458.33
  Q 228.64 452.97 248.62 444.54
  Q 249.37 444.22 250.15 443.99
  C 252.13 443.40 253.95 442.15 255.96 441.41
  Q 258.13 440.62 260.19 439.62
  Q 271.39 434.17 282.45 428.46
  Q 284.35 427.48 286.30 426.26
  Q 287.95 425.25 290.18 423.99
  Q 299.26 418.89 311.72 410.30
  Q 346.86 386.05 371.16 352.68
  Q 377.51 343.96 383.72 333.75
  Q 384.80 331.98 385.83 330.36
  Q 386.89 328.68 387.78 326.91
  Q 389.59 323.31 392.03 319.28
  Q 393.94 316.12 396.19 311.02
  Q 398.14 306.58 399.94 302.58
  Q 402.24 297.45 404.31 292.22
  Q 411.26 274.64 415.60 259.04
  Q 426.59 219.63 429.75 178.49
  C 430.31 171.26 431.01 164.04 431.00 156.84
  C 430.99 153.08 431.50 149.53 431.38 145.73
  Q 431.10 136.42 432.09 126.97
  Z"
/>
<ellipse fill="#ffffff" cx="0.00" cy="0.00" transform="translate(351.89,169.60) rotate(-40.6)" rx="7.95" ry="7.36"/>
<ellipse fill="#ffffff" cx="0.00" cy="0.00" transform="translate(222.64,169.76) rotate(-39.7)" rx="7.96" ry="7.36"/>
<path fill="#cccccc" d="
  M 78.46 170.46
  Q 86.45 175.12 90.65 176.60
  Q 93.10 177.46 93.85 177.90
  C 93.85 178.89 94.03 179.76 93.84 180.68
  Q 90.28 198.20 88.45 217.75
  Q 87.62 226.59 87.47 233.49
  Q 87.33 239.23 87.04 244.99
  Q 86.70 251.72 87.05 256.50
  Q 87.54 263.34 87.35 266.72
  Q 60.27 255.74 40.09 234.81
  Q 52.44 228.37 60.94 220.94
  Q 64.59 217.76 68.83 212.43
  Q 72.92 207.28 74.96 202.37
  Q 77.79 195.55 79.02 189.00
  Q 79.54 186.26 79.52 183.57
  C 79.50 180.45 79.71 177.28 79.03 174.18
  Q 78.63 172.34 78.46 170.46
  Z"
/>
<path fill="#422b0d" d="
  M 284.52 265.30
  C 275.21 261.47 264.33 261.15 254.65 264.68
  C 251.81 265.72 249.14 267.14 245.97 267.02
  C 232.54 266.53 229.81 248.49 241.93 243.50
  Q 264.33 234.26 287.39 240.52
  Q 293.45 242.16 298.08 244.94
  C 306.17 249.79 304.56 262.12 296.50 265.88
  C 292.19 267.89 288.79 267.06 284.52 265.30
  Z"
/>
</svg>
