<?xml version="1.0" encoding="UTF-8" standalone="no"?>
<!DOCTYPE svg PUBLIC "-//W3C//DTD SVG 1.1//EN" "http://www.w3.org/Graphics/SVG/1.1/DTD/svg11.dtd">
<svg xmlns="http://www.w3.org/2000/svg" version="1.1" viewBox="0.00 0.00 128.00 128.00">
<path fill="#c7c7c7" d="
  M 0.00 0.00
  L 25.72 0.00
  L 26.01 24.93
  A 1.05 1.05 0.0 0 1 24.96 25.99
  L 0.00 25.95
  L 0.00 0.00
  Z"
/>
<path fill="#c7c7c7" d="
  M 31.02 0.00
  L 61.72 0.00
  L 61.99 25.00
  A 1.00 0.99 -0.6 0 1 60.99 26.01
  L 31.47 25.98
  A 0.56 0.56 0.0 0 1 30.91 25.42
  L 31.02 0.00
  Z"
/>
<path fill="#c7c7c7" d="
  M 67.04 0.00
  L 80.73 0.00
  L 87.65 0.00
  L 94.90 0.00
  L 94.98 25.01
  A 1.00 0.99 -0.3 0 1 93.98 26.01
  L 67.26 25.98
  A 0.35 0.35 0.0 0 1 66.91 25.63
  L 67.04 0.00
  Z"
/>
<path fill="#c7c7c7" d="
  M 101.14 0.00
  L 128.00 0.00
  L 128.00 25.96
  L 100.72 26.00
  A 0.65 0.65 0.0 0 1 100.07 25.35
  L 99.99 1.09
  A 0.78 0.77 75.7 0 1 100.39 0.41
  L 101.14 0.00
  Z"
/>
<path fill="#c7c7c7" d="
  M 0.00 61.94
  L 0.00 31.23
  L 25.26 30.91
  A 0.77 0.77 0.0 0 1 26.03 31.68
  L 25.98 60.98
  A 1.02 1.02 0.0 0 1 24.96 62.00
  L 0.00 61.94
  Z"
/>
<rect fill="#c7c7c7" x="-15.51" y="-15.51" transform="translate(46.49,46.50) rotate(0.1)" width="31.02" height="31.02" rx="0.43"/>
<rect fill="#c7c7c7" x="-14.01" y="-15.48" transform="translate(80.99,46.52) rotate(0.1)" width="28.02" height="30.96" rx="0.44"/>
<path fill="#c7c7c7" d="
  M 128.00 31.03
  L 128.00 61.97
  L 100.72 62.02
  A 0.70 0.70 0.0 0 1 100.02 61.31
  L 100.03 31.53
  A 0.55 0.55 0.0 0 1 100.59 30.98
  L 128.00 31.03
  Z"
/>
<rect fill="#c7c7c7" x="-15.51" y="-13.51" transform="translate(46.49,80.50) rotate(0.1)" width="31.02" height="27.02" rx="0.52"/>
<rect fill="#c7c7c7" x="-14.01" y="-13.48" transform="translate(80.98,80.52) rotate(0.1)" width="28.02" height="26.96" rx="0.52"/>
<path fill="#c7c7c7" d="
  M 128.00 67.06
  L 128.00 93.96
  L 100.71 94.02
  A 0.69 0.69 0.0 0 1 100.02 93.33
  L 100.01 67.54
  A 0.61 0.61 0.0 0 1 100.62 66.93
  L 128.00 67.06
  Z"
/>
<path fill="#c7c7c7" d="
  M 0.00 93.95
  L 0.00 67.19
  L 25.29 66.96
  A 0.75 0.75 0.0 0 1 26.05 67.71
  L 25.98 92.98
  A 1.02 1.02 0.0 0 1 24.96 94.00
  L 0.00 93.95
  Z"
/>
<path fill="#c7c7c7" d="
  M 61.96 128.00
  L 30.98 128.00
  L 30.93 99.53
  A 0.53 0.53 0.0 0 1 31.46 99.00
  L 61.29 99.00
  A 0.83 0.82 90.0 0 1 62.11 99.83
  L 61.96 128.00
  Z"
/>
<path fill="#c7c7c7" d="
  M 94.94 128.00
  L 66.98 128.00
  L 66.91 99.51
  A 0.51 0.51 0.0 0 1 67.42 99.00
  L 94.25 99.07
  A 0.84 0.83 90.0 0 1 95.08 99.91
  L 94.94 128.00
  Z"
/>
<path fill="#c7c7c7" d="
  M 128.00 99.06
  L 128.00 128.00
  L 100.02 128.00
  L 99.97 99.64
  A 0.70 0.70 0.0 0 1 100.68 98.94
  L 128.00 99.06
  Z"
/>
<path fill="#c7c7c7" d="
  M 25.95 128.00
  L 0.00 128.00
  L 0.00 99.20
  L 25.36 98.96
  A 0.70 0.70 0.0 0 1 26.07 99.67
  L 25.95 128.00
  Z"
/>
</svg>
