<?xml version="1.0" encoding="UTF-8" standalone="no"?>
<!DOCTYPE svg PUBLIC "-//W3C//DTD SVG 1.1//EN" "http://www.w3.org/Graphics/SVG/1.1/DTD/svg11.dtd">
<svg xmlns="http://www.w3.org/2000/svg" version="1.1" viewBox="0.00 0.00 128.00 128.00">
<path fill="#c7c7c7" d="
  M 2.89 0.00
  L 22.73 0.00
  L 23.52 0.42
  Q 24.02 0.68 24.02 1.24
  L 24.00 20.96
  A 0.96 0.95 0.0 0 1 23.04 21.91
  L 0.00 21.94
  L 0.00 1.77
  L 0.26 0.88
  A 0.79 0.78 3.5 0 1 0.89 0.33
  L 2.89 0.00
  Z"
/>
<path fill="#c7c7c7" d="
  M 27.38 0.00
  L 48.64 0.00
  L 48.97 21.08
  A 0.89 0.88 -0.6 0 1 48.08 21.98
  L 27.77 22.01
  A 0.67 0.66 0.4 0 1 27.10 21.34
  L 27.38 0.00
  Z"
/>
<path fill="#c7c7c7" d="
  M 54.16 0.00
  L 76.64 0.00
  L 76.99 21.03
  A 0.95 0.94 -0.6 0 1 76.04 21.99
  L 52.75 22.00
  A 0.76 0.76 0.0 0 1 51.99 21.24
  Q 52.07 10.84 51.98 1.23
  Q 51.97 0.19 54.16 0.00
  Z"
/>
<path fill="#c7c7c7" d="
  M 83.14 0.00
  L 102.48 0.00
  L 103.61 0.47
  Q 104.02 0.64 104.02 1.09
  L 103.99 20.97
  A 0.97 0.96 90.0 0 1 103.03 21.94
  L 80.78 22.02
  Q 80.04 22.02 80.04 21.28
  L 80.01 1.18
  Q 80.01 0.60 80.58 0.49
  L 83.14 0.00
  Z"
/>
<path fill="#c7c7c7" d="
  M 107.38 0.00
  L 128.00 0.00
  L 128.00 21.92
  L 107.70 21.96
  A 0.59 0.59 0.0 0 1 107.11 21.36
  L 107.38 0.00
  Z"
/>
<path fill="#c7c7c7" d="
  M 0.00 48.78
  L 0.00 25.28
  L 22.81 25.04
  A 1.20 1.20 0.0 0 1 24.02 26.24
  L 23.99 47.50
  Q 23.99 48.94 22.55 48.93
  L 0.00 48.78
  Z"
/>
<rect fill="#c7c7c7" x="27.00" y="25.09" width="21.98" height="23.88" rx="0.94"/>
<rect fill="#c7c7c7" x="51.99" y="25.07" width="25.00" height="23.90" rx="1.00"/>
<rect fill="#c7c7c7" x="-12.00" y="-11.95" transform="translate(91.99,37.03) rotate(-0.1)" width="24.00" height="23.90" rx="1.05"/>
<path fill="#c7c7c7" d="
  M 128.00 25.16
  L 128.00 48.74
  L 107.72 48.92
  A 0.64 0.63 89.1 0 1 107.08 48.29
  L 106.95 26.05
  A 1.07 1.07 0.0 0 1 108.03 24.97
  L 128.00 25.16
  Z"
/>
<rect fill="#c7c7c7" x="-10.99" y="-12.00" transform="translate(37.99,63.99) rotate(0.1)" width="21.98" height="24.00" rx="0.95"/>
<rect fill="#c7c7c7" x="-12.50" y="-12.01" transform="translate(64.48,64.00) rotate(0.1)" width="25.00" height="24.02" rx="0.99"/>
<rect fill="#c7c7c7" x="-12.01" y="-12.00" transform="translate(91.98,63.99) rotate(0.1)" width="24.02" height="24.00" rx="1.00"/>
<path fill="#c7c7c7" d="
  M 128.00 52.17
  L 128.00 75.91
  L 107.47 75.90
  Q 107.03 75.90 107.03 75.46
  L 106.99 53.01
  A 1.07 1.07 0.0 0 1 108.08 51.93
  L 128.00 52.17
  Z"
/>
<path fill="#c7c7c7" d="
  M 0.00 75.91
  L 0.00 52.15
  L 22.60 52.04
  Q 23.99 52.04 23.99 53.43
  L 24.01 74.95
  A 1.01 1.01 0.0 0 1 23.00 75.96
  L 0.00 75.91
  Z"
/>
<path fill="#c7c7c7" d="
  M 0.00 101.95
  L 0.00 79.27
  L 22.58 79.02
  A 1.47 1.46 -0.2 0 1 24.06 80.48
  L 23.99 100.84
  A 1.08 1.07 -90.0 0 1 22.92 101.92
  L 0.00 101.95
  Z"
/>
<rect fill="#c7c7c7" x="-11.01" y="-11.47" transform="translate(38.00,90.53) rotate(-0.1)" width="22.02" height="22.94" rx="0.88"/>
<rect fill="#c7c7c7" x="-12.51" y="-11.48" transform="translate(64.49,90.52) rotate(-0.1)" width="25.02" height="22.96" rx="0.91"/>
<rect fill="#c7c7c7" x="79.98" y="79.08" width="24.04" height="22.90" rx="0.88"/>
<path fill="#c7c7c7" d="
  M 128.00 79.21
  L 128.00 101.92
  L 107.68 101.96
  A 0.66 0.66 0.0 0 1 107.02 101.31
  L 107.00 79.93
  Q 107.00 79.14 107.79 79.14
  L 128.00 79.21
  Z"
/>
<path fill="#c7c7c7" d="
  M 23.81 128.00
  L 0.00 128.00
  L 0.00 105.28
  L 22.82 105.04
  A 1.19 1.19 0.0 0 1 24.03 106.25
  L 23.81 128.00
  Z"
/>
<path fill="#c7c7c7" d="
  M 48.75 128.00
  L 27.18 128.00
  L 27.08 105.91
  A 0.86 0.86 0.0 0 1 27.94 105.04
  L 48.09 105.12
  A 0.91 0.91 0.0 0 1 49.00 106.04
  L 48.75 128.00
  Z"
/>
<path fill="#c7c7c7" d="
  M 76.75 128.00
  L 52.10 128.00
  L 51.92 106.08
  A 1.02 1.02 0.0 0 1 52.94 105.05
  L 76.02 105.08
  A 0.98 0.98 0.0 0 1 77.00 106.07
  L 76.75 128.00
  Z"
/>
<path fill="#c7c7c7" d="
  M 103.81 128.00
  L 80.11 128.00
  L 79.94 106.06
  A 1.00 1.00 0.0 0 1 80.94 105.05
  L 102.79 105.09
  A 1.24 1.24 0.0 0 1 104.03 106.34
  L 103.81 128.00
  Z"
/>
<path fill="#c7c7c7" d="
  M 128.00 105.15
  L 128.00 128.00
  L 107.14 128.00
  L 106.95 106.11
  A 1.14 1.14 0.0 0 1 108.10 104.96
  L 128.00 105.15
  Z"
/>
</svg>
